<?xml version="1.0" encoding="iso-8859-1"?>
<!-- Generator: Adobe Illustrator 19.0.0, SVG Export Plug-In . SVG Version: 6.00 Build 0)  -->
<svg version="1.1" id="Capa_1" xmlns="http://www.w3.org/2000/svg" xmlns:xlink="http://www.w3.org/1999/xlink" x="0px" y="0px"
	 viewBox="0 0 480 480" style="enable-background:new 0 0 480 480;" xml:space="preserve">
<path style="fill:#2BB0AF;" d="M128,248H8.552C8.248,247.232,8,247.432,8,247.688V464h152V273.432
	C160,258.96,145.672,247.232,128,248z"/>
<path style="fill:#EFC95B;" d="M248,240c0-44-36-80-80-80h-40H88c-44,0-80,36-80,80v7.688c0-0.256,0.248-0.456,0.552,0.312H128
	c17.672-0.768,32,10.96,32,25.432V464h32V336v-24c0,8.752,2.384,16.936,6.472,24H200l30.792,23.096
	C233.776,359.68,236.848,360,240,360h100c15.464,0,28-12.536,28-28s-12.536-28-28-28h-92V240z"/>
<path style="fill:#E7E7E7;" d="M440,16H128c39.76,0,72,32.264,72,72c0,18.352-6.936,35.056-18.248,47.776
	C168.56,150.6,149.4,160,128,160h40c44,0,80,36,80,80v64h92h100c17.672,0,32-14.328,32-32V48C472,30.328,457.672,16,440,16z M280,80
	l32,80l-16-8l-16,8l-16-8l-16,8L280,80z M368,240l-13.52-40.568c-5.152-15.456-5.384-31.992-0.936-47.432
	c1.344-4.664,3.072-9.24,5.272-13.64L368,120l-1.44-4.328c-2.936-8.808-3.768-17.904-2.96-26.776
	c1.584-17.552,10.008-34.184,24.36-45.656L392,40l4.064,3.248c21.6,17.288,30.128,46.2,21.376,72.44L416,120l9.184,18.36
	c2.2,4.4,3.928,8.976,5.272,13.64c4.448,15.44,4.224,31.976-0.928,47.432L416,240H368z"/>
<polygon style="fill:#D6705A;" points="280,160 296,152 312,160 280,80 248,160 264,152 "/>
<path style="fill:#2BB0AF;" d="M430.456,152h-76.904c-4.448,15.44-4.224,31.976,0.936,47.432L368,240h48l13.52-40.568
	C434.672,183.976,434.904,167.44,430.456,152z"/>
<path style="fill:#D6705A;" d="M425.184,138.36L416,120h-48l-9.176,18.36c-2.2,4.4-3.928,8.976-5.272,13.64h76.904
	C429.112,147.336,427.384,142.76,425.184,138.36z"/>
<path style="fill:#EFC95B;" d="M416,120l1.44-4.304c8.752-26.24,0.224-55.16-21.376-72.44L392,40l-4.048,3.24
	c-14.352,11.48-22.768,28.104-24.36,45.656c-0.8,8.872,0.024,17.968,2.96,26.776L368,120l0,0H416z"/>
<polygon style="fill:#E7E7E7;" points="368,120 368,120 416,120 "/>
<path style="fill:#EFC95B;" d="M181.752,135.776C193.064,123.056,200,106.352,200,88c0-39.736-32.24-72-72-72S56,48.264,56,88
	s32.24,72,72,72C149.4,160,168.56,150.6,181.752,135.776z"/>
<polygon style="fill:#E7E7E7;" points="232,360 230.792,359.096 200,336 198.472,336 192,336 192,464 192,472 456,472 456,408 
	472,408 472,360 340,360 240,360 "/>
<g>
	<rect x="280" y="264" style="fill:#383838;" width="16" height="16"/>
	<path style="fill:#383838;" d="M440,8H128C83.888,8,48,43.888,48,88c0,26.408,12.912,49.792,32.696,64.368
		C35.584,156.104,0,193.944,0,240v7.68V464v0.768h0.152C0.56,468.808,3.856,472,8,472h184c4.416,0,8-3.584,8-8V351.16
		c8.4,8.576,19.56,14.408,32,16.2V368h8h100h124v32h-32v16h16v56h16v-56h8c4.416,0,8-3.584,8-8v-48c0-4.416-3.584-8-8-8H369.904
		c3.84-5.728,6.096-12.6,6.096-20s-2.256-14.272-6.096-20H440c22.056,0,40-17.944,40-40V48C480,25.944,462.056,8,440,8z M64,88
		c0-35.288,28.712-64,64-64s64,28.712,64,64c0,14.872-5.144,28.544-13.688,39.424C163.384,124.728,152,111.696,152,96h-16
		c0,19.744,11.984,36.72,29.048,44.088C154.584,147.56,141.816,152,128,152C92.712,152,64,123.288,64,88z M16,256l112.344-0.008
		c7.296-0.304,14.024,2.032,18.608,6.416c2.304,2.208,5.048,5.912,5.048,11.024V456H16V256z M360,332c0,11.024-8.976,20-20,20H240
		c-22.056,0-40-17.944-40-40v-72h-16v216h-16V273.432c0-8.392-3.544-16.416-9.984-22.576c-7.72-7.4-18.832-11.328-30.016-10.856H16
		c0-39.696,32.304-72,72-72h80c39.696,0,72,32.304,72,72v64c0,4.416,3.584,8,8,8h92C351.024,312,360,320.976,360,332z M304,232h-16
		v-67.056l8-4l8,4V232z M292.424,144.84L280,151.056l-12.424-6.208C266.456,144.28,265.224,144,264,144
		c-0.336,0-0.672,0.016-1.008,0.064L280,101.536l17.008,42.52C295.456,143.848,293.848,144.128,292.424,144.84z M264,160.944l8,4
		V232h-16v-67.056L264,160.944z M464,272c0,13.232-10.768,24-24,24H340h-84v-48h112h48h48V272z M362.072,196.904
		c-4.032-12.096-4.712-24.736-2.248-36.904h64.36c2.456,12.168,1.784,24.808-2.248,36.904L410.232,232H373.76L362.072,196.904z
		 M390.056,103.76c0.648,0.16,1.296,0.24,1.944,0.24c2.096,0,4.136-0.824,5.656-2.344l3.92-3.92l10.616,5.312
		c-0.424,3.008-1.056,6-1.976,8.96h-36.44c-1.312-4.24-1.96-8.56-2.272-12.872L390.056,103.76z M372.608,82.904
		c2.64-12.512,9.224-24.144,19.392-32.64c10.736,8.968,17.544,21.408,19.848,34.72l-8.272-4.136c-3.08-1.528-6.8-0.928-9.232,1.504
		l-4.8,4.8L372.608,82.904z M365.976,141.936L372.944,128h38.112l6.968,13.936c0.336,0.68,0.592,1.376,0.912,2.064h-53.864
		C365.384,143.32,365.64,142.616,365.976,141.936z M464,232h-36.896l10.016-30.032c7.432-22.304,5.736-46.16-4.776-67.184
		l-7.696-15.392l0.384-1.16c9.768-29.288,0.144-61.928-23.968-81.224L397,33.76c-2.92-2.336-7.072-2.336-10,0l-4.04,3.232
		c-24.112,19.288-33.752,51.92-23.992,81.216l0.392,1.176l-7.696,15.392c-10.512,21.024-12.208,44.888-4.776,67.184L356.904,232H320
		v-72h-0.064c0-1-0.12-2.008-0.504-2.976l-32-80C286.208,73.992,283.272,72,280,72s-6.208,1.992-7.432,5.024l-32,80
		c-0.384,0.968-0.504,1.976-0.504,2.976H240v29.56c-14.616-20.8-37.968-34.976-64.696-37.192C195.088,137.792,208,114.408,208,88
		c0-26.184-12.704-49.4-32.2-64H440c13.232,0,24,10.768,24,24V232z"/>
</g>
<g>
</g>
<g>
</g>
<g>
</g>
<g>
</g>
<g>
</g>
<g>
</g>
<g>
</g>
<g>
</g>
<g>
</g>
<g>
</g>
<g>
</g>
<g>
</g>
<g>
</g>
<g>
</g>
<g>
</g>
</svg>
