<svg id="Layer_5" enable-background="new 0 0 64 64" height="512" viewBox="0 0 64 64" width="512" xmlns="http://www.w3.org/2000/svg"><g><g><g><path d="m25 39h-16v-12h16z" fill="#f0bc5e"/></g></g><g><g><path d="m41 36h-14v-9h14z" fill="#f0bc5e"/></g></g><g><path d="m47 45h2v2h-2z"/><path d="m39 45h2v2h-2z"/><path d="m43 45h2v2h-2z"/><path d="m59.015 4.633c-2.569-2.473-5.948-3.761-9.522-3.623-5.81.222-10.77 4.494-12.121 9.99h-31.372c-2.757 0-5 2.243-5 5v30c0 2.757 2.243 5 5 5h11.963c-.168 1.595-.997 3.041-2.296 4h-2.667c-1.654 0-3 1.346-3 3v2c0 1.654 1.346 3 3 3h30c1.654 0 3-1.346 3-3v-2c0-1.654-1.346-3-3-3h-2.666c-1.299-.959-2.128-2.405-2.296-4h11.962c2.757 0 5-2.243 5-5v-11.111c1.235-1.263 2-2.988 2-4.889v-2.602c0-1.416.63-2.772 1.774-3.819 2.685-2.457 4.226-5.948 4.226-9.579 0-3.566-1.416-6.893-3.985-9.367zm-10.015 32.287v4.08h-42v-16h35.387c.397.705.613 1.477.613 2.271v2.729c0 3.519 2.613 6.432 6 6.92zm-42-13.92v-6h30.371c.535 2.245 1.661 4.315 3.286 6zm37 35v2c0 .552-.449 1-1 1h-30c-.551 0-1-.448-1-1v-2c0-.552.449-1 1-1h30c.551 0 1 .448 1 1zm-6.471-3h-19.058c.858-1.155 1.378-2.536 1.492-4h16.075c.114 1.464.634 2.845 1.491 4zm12.471-6h-44c-1.654 0-3-1.346-3-3v-30c0-1.654 1.346-3 3-3h31.055c-.018.232-.046.461-.051.695-.01.438.007.873.041 1.305h-30.045c-1.103 0-2 .897-2 2v24c0 1.103.897 2 2 2h42c1.103 0 2-.897 2-2v-4.08c.706-.102 1.378-.308 2-.605v9.685c0 1.654-1.346 3-3 3zm0-14c-2.757 0-5-2.243-5-5v-1h10v1c0 2.757-2.243 5-5 5zm-3-22h-1c-.551 0-1-.448-1-1s.449-1 1-1 1 .448 1 1zm4 14h-2v-12h2zm6.424-4.896c-1.458 1.333-2.295 3.06-2.402 4.896h-2.022v-12h1c1.654 0 3-1.346 3-3s-1.346-3-3-3-3 1.346-3 3v1h-2v-1c0-1.654-1.346-3-3-3s-3 1.346-3 3 1.346 3 3 3h1v12h-2.015c-.078-1.799-.919-3.552-2.351-4.844-2.381-2.148-3.704-5.215-3.631-8.415.131-5.701 4.87-10.516 10.565-10.733.146-.005.29-.008.435-.008 2.862 0 5.556 1.082 7.625 3.074 2.174 2.094 3.372 4.908 3.372 7.926 0 3.071-1.303 6.024-3.576 8.104zm-4.424-9.104v-1c0-.552.449-1 1-1s1 .448 1 1-.449 1-1 1z"/><path d="m9 19h2v2h-2z"/><path d="m17 19h2v2h-2z"/><path d="m13 19h2v2h-2z"/><path d="m27 27h2v2h-2z"/><path d="m31 27h10v2h-10z"/><path d="m27 31h14v2h-14z"/><path d="m27 35h14v2h-14z"/></g></g></svg>