<svg height="512" viewBox="0 0 256 256" width="512" xmlns="http://www.w3.org/2000/svg"><path d="m196.183 68.643h48.301v66.107h-48.301z" fill="#f46275"/><circle cx="83.853" cy="70.242" fill="#f87023" r="12.5"/><circle cx="172.147" cy="70.242" fill="#f8af23" r="12.5"/><path d="m193.449 203.871h-130.949v-18.056a53.944 53.944 0 0 1 53.944-53.944h23.111a53.944 53.944 0 0 1 53.945 53.944z" fill="#63bce7"/><path d="m134.944 131.871h-18.5a53.944 53.944 0 0 0 -53.944 53.944v18.056h18.5v-18.056a53.944 53.944 0 0 1 53.944-53.944z" fill="#6377e7"/><rect fill="#f8af23" height="53.419" rx="13.5" width="27" x="114.5" y="95.869"/><path d="m114.5 109.369v26.419a13.554 13.554 0 0 0 11.686 13.378v-53.175a13.554 13.554 0 0 0 -11.686 13.378z" fill="#f87023"/><rect fill="#f8af23" height="110.075" rx="44.147" width="88.294" x="83.853" y="12.888"/><path d="m102.353 78.816v-21.781a44.314 44.314 0 0 1 34.9-43.157 43.876 43.876 0 0 0 -9.25-.99 44.277 44.277 0 0 0 -44.15 44.147v21.781a44.277 44.277 0 0 0 44.147 44.147 43.876 43.876 0 0 0 9.25-.99 44.314 44.314 0 0 1 -34.897-43.157z" fill="#f87023"/><path d="m114.5 131.906 13.5 17.59-14.625 7.875-5.918-24.755 7.043-7.995z" fill="#f46275"/><path d="m141.5 131.906-13.5 17.59 14.625 7.875 5.918-24.755-7.043-7.995z" fill="#f46275"/><path d="m164.8 9.1a22.328 22.328 0 0 0 -17.4 8.312 43.732 43.732 0 0 0 -19.4-4.524 44.277 44.277 0 0 0 -44.147 44.147v9.78h7.272v-5.9s14.722-3.714 14.861-19.964c0 0 18.732 16.629 52.487 11.988a22.375 22.375 0 1 0 6.327-43.839z" fill="#9e9e9e"/><path d="m137.226 13.884a43.768 43.768 0 0 0 -9.226-1 44.277 44.277 0 0 0 -44.147 44.151v9.78h7.272v-5.9a21.634 21.634 0 0 0 11.45-8.284 44.36 44.36 0 0 1 34.651-38.747z" fill="#707070"/><path d="m211.344 225.595v2.848a6.719 6.719 0 0 1 -6.7 6.7h-153.289a6.719 6.719 0 0 1 -6.7-6.7v-2.848z" fill="#6377e7"/><path d="m55.816 146.351h144.367v88.791h-144.367z" fill="#63bce7"/><path d="m55.816 146.351h18.5v88.792h-18.5z" fill="#6377e7"/><path d="m181.684 146.351h18.5v88.792h-18.5z" fill="#63e2e7"/><path d="m128 173.892v16.854h-16.854a16.854 16.854 0 1 0 16.854-16.854z" fill="#f8af23"/><path d="m128 173.892a16.854 16.854 0 0 0 -16.854 16.854h16.854z" fill="#f46275"/><path d="m11.516 68.643h48.301v66.107h-48.301z" fill="#f46275"/><path d="m11.516 68.643h18.5v66.107h-18.5z" fill="#f43075"/><path d="m225.984 68.643h18.5v66.107h-18.5z" fill="#f48875"/><rect fill="#f8af23" height="11.625" rx="5.812" width="24.375" x="23.479" y="62.83"/><rect fill="#f8af23" height="11.625" rx="5.812" width="24.375" x="208.146" y="62.83"/><path d="m39.796 91.428h11.18v37.732h-11.18z" fill="#f8af23"/><path d="m50.976 129.16a5.59 5.59 0 0 1 -11.18 0z" fill="#63bce7"/><path d="m39.796 91.428 5.59-8.851 5.59 8.851z" fill="#63bce7"/><path d="m215.458 88.5h9.75v14.15h-9.75z" fill="#63bce7"/><rect fill="#f8af23" height="5.438" rx="2.719" width="15.667" x="212.5" y="83.062"/><circle cx="220.333" cy="109.656" fill="#f8af23" r="15.281"/><g fill="#3f3679"><path d="m131.124 100.342a1.5 1.5 0 0 0 0 3 6.138 6.138 0 0 0 1.5-12.09v-8.51a1.5 1.5 0 1 0 -3 0v9.83a1.5 1.5 0 0 0 1.5 1.5c.022 0 .042-.005.063-.006a3.139 3.139 0 0 1 -.063 6.277z"/><path d="m134.429 107.533a1.5 1.5 0 0 0 -2.122 0 6.427 6.427 0 0 1 -10.974-4.544 1.5 1.5 0 0 0 -3 0 9.432 9.432 0 0 0 16.095 6.666 1.5 1.5 0 0 0 .001-2.122z"/><path d="m111.762 74.907a2.779 2.779 0 0 0 -2.777 2.779v3.9a2.778 2.778 0 1 0 5.557 0v-3.9a2.78 2.78 0 0 0 -2.78-2.779z"/><path d="m144.235 74.907a2.779 2.779 0 0 0 -2.777 2.779v3.9a2.779 2.779 0 1 0 5.558 0v-3.9a2.781 2.781 0 0 0 -2.781-2.779z"/><path d="m120.315 69.5a1.5 1.5 0 0 0 -.325-2.1 10.335 10.335 0 0 0 -8.013-1.925 9.311 9.311 0 0 0 -6.15 3.964 1.5 1.5 0 0 0 2.512 1.641 6.3 6.3 0 0 1 4.176-2.653 7.379 7.379 0 0 1 5.7 1.4 1.5 1.5 0 0 0 2.1-.327z"/><path d="m137.781 69.824a7.372 7.372 0 0 1 5.7-1.4 6.3 6.3 0 0 1 4.176 2.653 1.5 1.5 0 0 0 2.512-1.641 9.311 9.311 0 0 0 -6.15-3.964 10.332 10.332 0 0 0 -8.009 1.928 1.5 1.5 0 0 0 1.771 2.421z"/><path d="m25.89 245.4h-18.5a1.5 1.5 0 1 0 0 3h18.5a1.5 1.5 0 1 0 0-3z"/><path d="m248.61 245.4h-18.5a1.5 1.5 0 0 0 0 3h18.5a1.5 1.5 0 0 0 0-3z"/><path d="m215.337 245.4h-174.674a1.5 1.5 0 0 0 0 3h174.674a1.5 1.5 0 0 0 0-3z"/><path d="m7.39 236.642h7.944a1.5 1.5 0 1 0 0-3h-7.944a1.5 1.5 0 1 0 0 3z"/><path d="m239.167 235.142a1.5 1.5 0 0 0 1.5 1.5h7.944a1.5 1.5 0 0 0 0-3h-7.944a1.5 1.5 0 0 0 -1.5 1.5z"/><path d="m128 209.1a18.354 18.354 0 1 0 -18.354-18.354 18.375 18.375 0 0 0 18.354 18.354zm-1.5-33.636v13.782h-13.782a15.381 15.381 0 0 1 13.782-13.781zm1.5 16.782a1.5 1.5 0 0 0 1.5-1.5v-15.281a15.355 15.355 0 1 1 -16.782 16.782z"/><path d="m11.516 136.25h22.65v42.5a13.515 13.515 0 0 0 13.5 13.5h6.65v31.848h-9.66a1.5 1.5 0 0 0 -1.5 1.5v2.849a8.16 8.16 0 0 0 1.864 5.2h-19.13a1.5 1.5 0 1 0 0 3h204.22a1.5 1.5 0 0 0 0-3h-19.13a8.16 8.16 0 0 0 1.864-5.2v-2.849a1.5 1.5 0 0 0 -1.5-1.5h-9.661v-31.851h6.65a13.515 13.515 0 0 0 13.5-13.5v-42.5h22.65a1.5 1.5 0 0 0 1.5-1.5v-66.104a1.5 1.5 0 0 0 -1.5-1.5h-10.618a7.324 7.324 0 0 0 -7.156-5.812h-12.75a7.324 7.324 0 0 0 -7.156 5.812h-10.62a1.5 1.5 0 0 0 -1.5 1.5v66.107a1.5 1.5 0 0 0 1.5 1.5h22.651v42.5a10.512 10.512 0 0 1 -10.5 10.5h-6.65v-42.9a1.5 1.5 0 0 0 -1.5-1.5h-23.267a55.211 55.211 0 0 0 -27.593-13.616l-6.324-7.179v-2.136a45.756 45.756 0 0 0 30.321-37.736 13.986 13.986 0 0 0 .31-27.846q-.02-1.319-.117-2.634a23.872 23.872 0 1 0 -26.5-38.137 44.927 44.927 0 0 0 -19.014-4.178 45.692 45.692 0 0 0 -45.629 44.947 13.987 13.987 0 0 0 .308 27.847 45.756 45.756 0 0 0 30.321 37.737v2.136l-6.324 7.179a55.2 55.2 0 0 0 -27.593 13.617h-23.267a1.5 1.5 0 0 0 -1.5 1.5v42.9h-6.65a10.512 10.512 0 0 1 -10.5-10.5v-42.5h22.651a1.5 1.5 0 0 0 1.5-1.5v-66.108a1.5 1.5 0 0 0 -1.5-1.5h-10.617a7.324 7.324 0 0 0 -7.156-5.812h-12.752a7.324 7.324 0 0 0 -7.156 5.812h-10.62a1.5 1.5 0 0 0 -1.5 1.5v66.107a1.5 1.5 0 0 0 1.5 1.5zm202.442-71.92h12.75a4.313 4.313 0 0 1 0 8.625h-12.75a4.313 4.313 0 0 1 0-8.625zm-16.276 5.813h9.118a7.324 7.324 0 0 0 7.156 5.813h12.75a7.324 7.324 0 0 0 7.156-5.812h9.119v63.106h-45.3zm-151.526 158.3v-1.349h8.161v6.547h-2.963a5.2 5.2 0 0 1 -5.198-5.198zm163.688-1.349v1.349a5.2 5.2 0 0 1 -5.2 5.2h-2.962v-6.547zm-60.174-92.741a52.147 52.147 0 0 1 22.629 10.5h-25.139zm-5.594 10.5h-10.62l9.234-12.032a1.5 1.5 0 0 0 .31-.913v-3.312l3.9 4.431zm39.071-74.609a11.009 11.009 0 0 1 -9.559 10.894q.058-1.153.059-2.32v-19.465a11.013 11.013 0 0 1 9.5 10.889zm-55.147-55.856a41.984 41.984 0 0 1 18.74 4.373 1.5 1.5 0 0 0 1.83-.4 20.874 20.874 0 1 1 10.33 33.139 1.5 1.5 0 0 0 -.628-.047c-32.613 4.482-51.105-11.464-51.287-11.624a1.5 1.5 0 0 0 -2.5 1.109c-.127 14.855-13.176 18.38-13.728 18.522a1.5 1.5 0 0 0 -1.133 1.455v4.4h-4.271v-8.28a42.7 42.7 0 0 1 42.647-42.647zm-55.147 55.854a10.969 10.969 0 0 1 9.5-10.9v19.474q0 1.167.059 2.32a11.009 11.009 0 0 1 -9.559-10.894zm12.5 8.574v-10.5h5.772a1.5 1.5 0 0 0 1.5-1.5v-4.816c3.377-1.234 13.221-5.857 14.68-18.137 6.026 4.264 23.555 14.289 51.057 10.6a23.851 23.851 0 0 0 12.211.177c.045.8.075 1.595.075 2.389v21.787a42.647 42.647 0 0 1 -85.294 0zm42.647 45.647a45.522 45.522 0 0 0 12-1.612v8.549l-10.325 13.455h-3.349l-10.326-13.455v-8.545a45.522 45.522 0 0 0 12 1.608zm-15 4.13v3.312a1.5 1.5 0 0 0 .31.913l9.234 12.032h-10.62l-2.824-11.826zm-6.67 5.76 2.509 10.5h-25.139a52.149 52.149 0 0 1 22.63-10.5zm-49.014 13.5h141.368v85.792h-141.368zm-14.8-57.923 2.869-4.542 2.869 4.542zm-1.221 3h8.18v34.73h-8.175zm.285 37.732h7.611a4.091 4.091 0 0 1 -7.611 0zm-12.288-66.332h12.75a4.313 4.313 0 0 1 0 8.625h-12.75a4.313 4.313 0 0 1 0-8.625zm-16.276 5.813h9.119a7.324 7.324 0 0 0 7.156 5.813h12.75a7.324 7.324 0 0 0 7.159-5.813h9.119v63.107h-7.15a7.043 7.043 0 0 0 1.309-4.09v-37.732a1.489 1.489 0 0 0 -.236-.8l-5.59-8.851a1.557 1.557 0 0 0 -2.536 0l-5.59 8.851a1.489 1.489 0 0 0 -.236.8v37.732a7.044 7.044 0 0 0 1.309 4.09h-26.583z"/><path d="m45.386 96.881a1.5 1.5 0 0 0 -1.5 1.5v23.825a1.5 1.5 0 0 0 3 0v-23.825a1.5 1.5 0 0 0 -1.5-1.5z"/><path d="m20.357 84.077h18.875a1.5 1.5 0 0 0 0-3h-18.875a1.5 1.5 0 1 0 0 3z"/><path d="m20.357 92.2h14.25a1.5 1.5 0 0 0 0-3h-14.25a1.5 1.5 0 1 0 0 3z"/><path d="m20.357 100.32h14.25a1.5 1.5 0 1 0 0-3h-14.25a1.5 1.5 0 1 0 0 3z"/><path d="m20.357 108.442h14.25a1.5 1.5 0 0 0 0-3h-14.25a1.5 1.5 0 1 0 0 3z"/><path d="m20.357 116.563h14.25a1.5 1.5 0 0 0 0-3h-14.25a1.5 1.5 0 0 0 0 3z"/><path d="m36.107 123.185a1.5 1.5 0 0 0 -1.5-1.5h-14.25a1.5 1.5 0 1 0 0 3h14.25a1.5 1.5 0 0 0 1.5-1.5z"/><path d="m237.115 109.656a16.8 16.8 0 0 0 -10.407-15.516v-4.354a4.207 4.207 0 0 0 -1.261-8.224h-10.228a4.207 4.207 0 0 0 -1.261 8.224v4.354a16.778 16.778 0 1 0 23.156 15.516zm-21.9-25.094h10.229a1.219 1.219 0 0 1 0 2.438h-10.225a1.219 1.219 0 1 1 0-2.438zm1.743 5.438h6.75v3.216a16.866 16.866 0 0 0 -6.75 0zm-10.406 19.656a13.781 13.781 0 1 1 13.781 13.781 13.8 13.8 0 0 1 -13.781-13.781z"/><path d="m227.687 118.188a1.5 1.5 0 0 0 1.037-2.584l-6.891-6.588v-9.516a1.5 1.5 0 0 0 -3 0v10.156a1.5 1.5 0 0 0 .463 1.084l7.354 7.031a1.5 1.5 0 0 0 1.037.417z"/></g></svg>