<svg height="512" viewBox="0 0 512 512" width="512" xmlns="http://www.w3.org/2000/svg"><g id="filled_outline" data-name="filled outline"><path d="m472 416h-168l-10.728 10.728a18 18 0 0 1 -12.728 5.272h-49.088a18 18 0 0 1 -12.728-5.272l-10.728-10.728h-168v-298a22 22 0 0 1 22-22h388a22 22 0 0 1 22 22z" fill="#cbcbcb"/><path d="m72 128h368v328h-368z" fill="#c0f5f9"/><path d="m184 280 72-24 72 24-72 24z" fill="#ea9d2d"/><path d="m296 232v2.67a39.414 39.414 0 0 1 -.28 4.74 40.055 40.055 0 0 1 -7.72 19.26l-16 21.33h-32l-16-21.33c-.15-.2-.3-.41-.44-.61a39.994 39.994 0 0 1 -7.56-23.39v-2.67a40 40 0 0 1 80 0z" fill="#fbb540"/><path d="m256 304a16 16 0 0 1 -16-16v-8h32v8a16 16 0 0 1 -16 16z" fill="#e4e4e2"/><path d="m277.657 226.343a8 8 0 0 0 -11.314 0l-10.343 10.344-10.343-10.344a8 8 0 0 0 -11.314 11.314l13.657 13.657v28.686h16v-28.686l13.657-13.657a8 8 0 0 0 0-11.314z" fill="#ea9d2d"/><path d="m296 232v2.67a39.414 39.414 0 0 1 -.28 4.74 12 12 0 0 1 -15.72-11.75v-11.66a33.95 33.95 0 0 0 -48 0l-8 8v31.34a8.473 8.473 0 0 1 -.44 2.72 39.994 39.994 0 0 1 -7.56-23.39v-2.67a40 40 0 0 1 80 0z" fill="#f3af3e"/><path d="m160 208h16v16h-16z" fill="#c0f5f9"/><path d="m160 152h16v40h-16z" fill="#c0f5f9"/><path d="m431.426 112a48.246 48.246 0 0 0 -.814-8.768l16.239-9.376-16-27.712-16.245 9.378a47.943 47.943 0 0 0 -15.18-8.78v-18.742h-32v18.742a47.588 47.588 0 0 0 -8 3.693 48.163 48.163 0 0 0 -7.181 5.087l-16.245-9.378-16 27.712 16.239 9.376a47.687 47.687 0 0 0 0 17.536l-16.239 9.376 16 27.712 16.245-9.378a48.205 48.205 0 0 0 7.18 5.087 47.634 47.634 0 0 0 8 3.693v18.742h32v-18.742a47.943 47.943 0 0 0 15.18-8.78l16.245 9.378 16-27.712-16.239-9.376a48.246 48.246 0 0 0 .815-8.768zm-48 16a16 16 0 1 1 16-16 16 16 0 0 1 -16 16z" fill="#f3af3e"/><g fill="#aae5c8"><path d="m376 176h16v24h-16z"/><path d="m376 216h16v16h-16z"/><path d="m344 216h16v16h-16z"/><path d="m296 216h32v16h-32z"/></g><path d="m256 384-72-24v-80l72 24z" fill="#dc4d41"/><path d="m256 384 72-24v-80l-72 24z" fill="#4799cf"/><path d="m296 320h88v16h-88z" fill="#fbb540"/><circle cx="392" cy="328" fill="#4799cf" r="16"/><path d="m128 320h88v16h-88z" fill="#fbb540"/><circle cx="120" cy="328" fill="#dc4d41" r="16"/><path d="m288 160v-32h-64v32l-16 16-8 32 6.794 40.762a8.662 8.662 0 0 0 8.544 7.238 8.662 8.662 0 0 0 8.662-8.662v-31.338l8-8a33.941 33.941 0 0 1 48 0v11.662a12.213 12.213 0 0 0 10.031 12.181 12.007 12.007 0 0 0 13.969-11.843v-28z" fill="#fdc9a6"/><path d="m40 408h432v24h-432z" fill="#a8a8a8"/><path d="m72 408h368v24h-368z" fill="#b3e4e8"/><path d="m472 456h-432a16 16 0 0 1 -16-16v-24h184l10.728 10.728a18 18 0 0 0 12.728 5.272h49.088a18 18 0 0 0 12.728-5.272l10.728-10.728h184v24a16 16 0 0 1 -16 16z" fill="#b9b9b9"/><path d="m488 408h-8v-290a30.038 30.038 0 0 0 -27.215-29.866l-15.006-25.99a8 8 0 0 0 -10.928-2.928l-11.613 6.7a55.586 55.586 0 0 0 -7.812-4.52v-13.396a8 8 0 0 0 -8-8h-32a8 8 0 0 0 -8 8v13.4q-2.046.974-4.009 2.109-1.944 1.125-3.8 2.41l-11.617-6.703a8 8 0 0 0 -10.928 2.928l-14.928 25.856h-252.144a30.034 30.034 0 0 0 -30 30v290h-8a8 8 0 0 0 -8 8v24a24.028 24.028 0 0 0 24 24h432a24.028 24.028 0 0 0 24-24v-24a8 8 0 0 0 -8-8zm-48.76-300.511 6.042-3.489h4.718a14.015 14.015 0 0 1 14 14v290h-16v-263.846l5.779-10.01a8 8 0 0 0 -2.928-10.928l-11.611-6.7q.184-2.265.186-4.511t-.186-4.516zm-95.134 11.825a39.674 39.674 0 0 1 0-14.628 8 8 0 0 0 -3.867-8.381l-9.311-5.376 8-13.857 9.317 5.378a8 8 0 0 0 9.2-.848 40.409 40.409 0 0 1 5.988-4.244 39.926 39.926 0 0 1 6.659-3.073 8 8 0 0 0 5.334-7.543v-10.742h16v10.742a8 8 0 0 0 5.333 7.542 39.8 39.8 0 0 1 12.646 7.316 8 8 0 0 0 9.2.849l9.317-5.378 8 13.857-9.311 5.376a8 8 0 0 0 -3.867 8.38 39.628 39.628 0 0 1 0 14.63 8 8 0 0 0 3.867 8.38l9.311 5.376-8 13.857-9.317-5.378a8 8 0 0 0 -9.2.849 39.8 39.8 0 0 1 -12.646 7.317 8 8 0 0 0 -5.333 7.542v10.743h-16v-10.742a8 8 0 0 0 -5.334-7.543 39.945 39.945 0 0 1 -6.657-3.072 40.393 40.393 0 0 1 -5.99-4.245 8 8 0 0 0 -9.2-.848l-9.317 5.378-8-13.857 9.311-5.376a8 8 0 0 0 3.867-8.381zm-10.176 46.27a7.989 7.989 0 0 0 6.07-.8l11.616-6.706q1.854 1.282 3.8 2.411t4.008 2.108v13.403a8 8 0 0 0 8 8h8.576v16h16v-16h7.426a8 8 0 0 0 8-8v-13.4a55.586 55.586 0 0 0 7.812-4.52l11.613 6.7a7.993 7.993 0 0 0 5.149.984v242.236h-128a8 8 0 0 0 -5.657 2.343l-10.728 10.728a9.934 9.934 0 0 1 -7.071 2.929h-49.088a9.931 9.931 0 0 1 -7.071-2.93l-10.728-10.727a8 8 0 0 0 -5.657-2.343h-128v-272h136v20.687l-13.657 13.656a7.994 7.994 0 0 0 -2.1 3.717l-8 32a7.99 7.99 0 0 0 -.13 3.255l6.793 40.762a16.6 16.6 0 0 0 10.771 12.935l-28.2 9.4c-.056.019-.089.042-.139.062a7.927 7.927 0 0 0 -5.338 7.526v40h-33.376a24 24 0 1 0 0 16h33.376v24a8 8 0 0 0 5.47 7.59l72 24a7.949 7.949 0 0 0 5.049 0h.011l72-24a8 8 0 0 0 5.47-7.59v-24h33.376a24 24 0 1 0 0-16h-33.376v-40a7.927 7.927 0 0 0 -5.332-7.528c-.05-.02-.083-.043-.139-.062l-34.38-11.457a48.4 48.4 0 0 0 7.824-24.953 18.289 18.289 0 0 0 4-4h20.027v-16h-16v-24a7.994 7.994 0 0 0 -.845-3.578l-15.155-30.311v-22.111h18.144l14.928 25.856a8 8 0 0 0 4.858 3.728zm-53.085-2.006 15.155 30.311v26.111a3.976 3.976 0 0 1 -1.2 2.854 3.907 3.907 0 0 1 -2.88 1.145 4.289 4.289 0 0 1 -3.92-4.399v-11.6a8 8 0 0 0 -2.343-5.657 41.991 41.991 0 0 0 -59.314 0l-8 8a8 8 0 0 0 -2.343 5.657v31.338a.662.662 0 0 1 -1.315.108l-6.52-39.12 7.059-28.236 14.433-14.433a8 8 0 0 0 2.343-5.657v-24h48v24a7.994 7.994 0 0 0 .845 3.578zm39.155 172.422v18.234l-56 18.666v-63.134l56-18.666v28.9h-24v16zm-128 0h24v-16h-24v-28.9l56 18.666v63.134l-56-18.666zm80.5-111.976a7.974 7.974 0 0 0 -6.153 2.319l-10.347 10.344-10.343-10.344a8 8 0 0 0 -13.657 5.657v-12.687l5.657-5.656a25.981 25.981 0 0 1 34.343-2.078v8.021a20.488 20.488 0 0 0 .5 4.424zm-4.5 47.976h-4v-20.686l13.657-13.657a7.972 7.972 0 0 0 1.627-2.365 19.81 19.81 0 0 0 8.332 4.207 32.267 32.267 0 0 1 -6.016 14.371zm-12 23.567-5.62-1.873a7.961 7.961 0 0 1 -2.38-5.694h16a7.961 7.961 0 0 1 -2.38 5.694zm-24-48.229v-15.338a7.98 7.98 0 0 0 2.343 5.655l13.657 13.659v20.686h-4l-13.44-17.917a16.536 16.536 0 0 0 1.44-6.745zm-6.139 27.144 6.139 8.185v4.9l-22.7-7.567zm54.139 13.085v-4.9l6.139-8.185 16.561 5.518zm-152 40.433a8 8 0 1 1 -8-8 8.009 8.009 0 0 1 8 8zm256 0a8 8 0 1 1 8 8 8.009 8.009 0 0 1 -8-8zm-336-210a14.015 14.015 0 0 1 14-14h259.569l6.043 3.489c-.124 1.509-.186 3.016-.186 4.511s.062 3 .186 4.511l-6.043 3.489h-249.569a8 8 0 0 0 -8 8v280h-16zm432 322a8.009 8.009 0 0 1 -8 8h-432a8.009 8.009 0 0 1 -8-8v-16h172.687l8.384 8.384a25.828 25.828 0 0 0 18.385 7.616h49.088a25.832 25.832 0 0 0 18.385-7.615l8.384-8.385h172.687z"/><path d="m160 208h16v16h-16z"/><path d="m160 152h16v40h-16z"/><path d="m383.426 136a24 24 0 1 0 -24-24 24.027 24.027 0 0 0 24 24zm0-32a8 8 0 1 1 -8 8 8.009 8.009 0 0 1 8-8z"/><path d="m376 216h16v16h-16z"/><path d="m344 216h16v16h-16z"/></g></svg>